<svg xmlns="http://www.w3.org/2000/svg" width="1000" height="1000" viewBox="0 0 1000 1000">
  <metadata><?xpacket begin="﻿" id="W5M0MpCehiHzreSzNTczkc9d"?>
<x:xmpmeta xmlns:x="adobe:ns:meta/" x:xmptk="Adobe XMP Core 5.6-c142 79.160924, 2017/07/13-01:06:39        ">
   <rdf:RDF xmlns:rdf="http://www.w3.org/1999/02/22-rdf-syntax-ns#">
      <rdf:Description rdf:about=""/>
   </rdf:RDF>
</x:xmpmeta>
                                                                                                    
                                                                                                    
                                                                                                    
                                                                                                    
                                                                                                    
                                                                                                    
                                                                                                    
                                                                                                    
                                                                                                    
                                                                                                    
                                                                                                    
                                                                                                    
                                                                                                    
                                                                                                    
                                                                                                    
                                                                                                    
                                                                                                    
                                                                                                    
                                                                                                    
                                                                                                    
                           
<?xpacket end="w"?></metadata>
<defs>
    <style>
      .cls-1 {
        fill: #fff;
      }

      .cls-2, .cls-3, .cls-4 {
        fill-rule: evenodd;
      }

      .cls-3, .cls-4 {
        fill: #d10505;
      }

      .cls-3 {
        stroke: #111;
        stroke-width: 8.28px;
      }
    </style>
  </defs>
  <ellipse class="cls-1" cx="500.5" cy="494" rx="500.5" ry="494"/>
  <path id="Color_Fill_1" data-name="Color Fill 1" class="cls-2" d="M925.715,135c33.066,11.784,62.631,46.942,62.285,90.092S960.591,304,925.335,316.7c-24.756.694-170.617,1.134-182.3,0.856s-14.8,4.7-16.331,10.269S610.152,755.484,582.39,855.731C580.674,861.865,576.133,866.058,571,866c-7.2-.082-40.257-0.38-40.257-0.38S689.325,293.7,692.147,284.09s7.879-10.649,15.951-10.649c141.832-.514,175.308-0.658,194.83-0.761,21.063-2.778,21.719-36.017,22.028-47.541s-2.069-40.083-21.648-44.119c-146.486-.48-219.763-0.838-223.314-0.76s-9.4,2.829-10.634,7.606C604.424,426.135,490.42,845.915,488.583,852.688s-6.188,12.087-12.533,12.171c-6.434.085-186.1,1.141-186.1,1.141s8.683-29.386,9.875-33.469,8.911-9.509,14.431-9.509,92.8-.38,124.95-0.76c6.333-.46,11.979-5.786,14.052-12.932C536.081,504.219,626.7,167.8,631.382,153.256s5.748-15.5,20.508-15.974C786.574,136.326,894.9,135.347,925.715,135Z"/>
  <path class="cls-2" d="M266.342,801.1c18.45,19.469,16.237,5.326,9.009-4.1s-43.82-70.273-42.588-114.869,52.617-58.856,61.016-95.177-9.962-26.165-4.914-44.717,74.012-96.528,72.072-260.917c-4.578-45.438-13.982-68.027-43.407-114.869-87.188-42.022-138.993-44.4-212.53,36.1,40.387,97.733,103.863,113.66,196.15,99.69,5.311,8.648,32.288,38.857,31.941,61.127-1.417,35.661-7.142,82.878-31.941,114.869s-56.719,79.436-73.3,155.073C208.169,721.362,236.529,750.577,266.342,801.1Z"/>
  <path class="cls-3" d="M344.147,318.645c-1.418-17.039-.329-87.4-45.864-122.253-9.5-7.271-30.3-11.077-30.3-11.077s5.577,36.087-19.421,35.26c-30.035-.995-20.884-39.467-20.884-39.467a154.076,154.076,0,0,0-30.947,2.566c-21.015,3.955-44.173,16.7-44.226,16.41-0.159-.865,22.831,67.807,83.128,74.254,33.584,3.592,78.214-18.05,78.214-18.05S339.185,294.861,344.147,318.645Z"/>
  <path class="cls-2" d="M500.356,610.416s-116.678,3.769-129.886,4.564c-6.591.4-15.469,16.636-4.938,25.1,7.868,6.325,101.4,92.041,101.4,92.041Z"/>
  <path id="Color_Fill_2" data-name="Color Fill 2" class="cls-4" d="M788.993,189.007c16.539-.171,29.584,15.626,29.243,29.286s-12.139,30.9-30.383,30.046-26.838-16.79-27.344-19.4c-2.242.145-65.323-.38-65.323-0.38L646.573,401.613l3.8,6.466L642.4,434.7s-17.591-28.174-18.23-29.285a4.73,4.73,0,0,1-.38-4.184c0.365-.992,45.835-164.891,53.55-185.983,1.915-5.234,5.6-7.606,9.874-7.606-10.34,0,70.515-.073,74.058,0C761.557,202.647,772.454,189.178,788.993,189.007Zm-0.76,21.3c-6.046.142-8.284,4.592-8.355,8.367s1.171,8.51,8.355,8.368,8.569-6.137,8.355-9.129S794.279,210.163,788.233,210.306ZM693.667,477.68l58.486,94.7s-0.03,3.745-.044,5.809c-0.327,46.71-.362,93.958-0.715,140.619a9.946,9.946,0,0,1-.76,4.184c-9.747,19.648-27.154,55.158-29.623,60.473,0,1.483,9.912,12.732,1.519,29.666s-30.943,18.94-42.915,11.029-16.53-25.188-9.5-38.413,22.18-18.047,33.041-14.833c3.7-6.675,18.1-36.261,26.585-53.627V651.112s-22.984-23.737-25.534-26.189c-3.163,2.861-23.6,7.549-35.231-6.14s-9.107-30.508.379-40.315,27.626-14.188,41.4-1.521,9.33,27.118,7.6,32.328c3.672,3.065,11.773,11.41,11.773,11.41l0.38-42.6-44.435-73.4Zm-8.736,114.86c-2.364,3.185-4.131,8.932-.379,11.791s7.668,4.708,12.153.38,2.393-9.856-.38-12.551S687.3,589.355,684.931,592.54Zm15.192,199.3c-4.905-2.533-10.324.743-11.014,2.662s-3.856,8.18,2.659,12.171,10.926-1.581,12.153-3.423S705.028,794.368,700.123,791.835Z"/>
</svg>
