<svg xmlns="http://www.w3.org/2000/svg" width="100" height="100" viewBox="0 0 5000 5000">
  <metadata><?xpacket begin="﻿" id="W5M0MpCehiHzreSzNTczkc9d"?>
<x:xmpmeta xmlns:x="adobe:ns:meta/" x:xmptk="Adobe XMP Core 5.6-c142 79.160924, 2017/07/13-01:06:39        ">
   <rdf:RDF xmlns:rdf="http://www.w3.org/1999/02/22-rdf-syntax-ns#">
      <rdf:Description rdf:about=""/>
   </rdf:RDF>
</x:xmpmeta>
                                                                                                    
                                                                                                    
                                                                                                    
                                                                                                    
                                                                                                    
                                                                                                    
                                                                                                    
                                                                                                    
                                                                                                    
                                                                                                    
                                                                                                    
                                                                                                    
                                                                                                    
                                                                                                    
                                                                                                    
                                                                                                    
                                                                                                    
                                                                                                    
                                                                                                    
                                                                                                    
                           
<?xpacket end="w"?></metadata>
<defs>
    <style>
      .cls-1, .cls-2, .cls-3 {
        fill-rule: evenodd;
      }

      .cls-2, .cls-3 {
        fill: #d10505;
      }

      .cls-2 {
        stroke: #111;
        stroke-width: 8.28px;
      }
    </style>
  </defs>
  <path id="Color_Fill_1" data-name="Color Fill 1" class="cls-1" d="M4638.18,726c160.76,57.211,304.5,227.9,302.82,437.4s-133.26,383.11-304.67,444.77c-120.36,3.37-829.51,5.51-886.29,4.16s-71.96,22.81-79.4,49.85-566.68,2076.27-701.65,2562.96c-8.34,29.79-30.42,50.14-55.39,49.86-34.99-.4-195.73-1.85-195.73-1.85s771.02-2776.66,784.74-2823.32,38.31-51.7,77.55-51.7c689.57-2.5,852.32-3.19,947.23-3.69,102.41-13.49,105.6-174.87,107.1-230.82s-10.06-194.6-105.25-214.193c-712.19-2.33-1068.45-4.068-1085.71-3.692s-45.7,13.735-51.7,36.93c-315.71,1156.8-869.98,3194.825-878.91,3227.705s-30.09,58.68-60.94,59.09c-31.28.41-904.76,5.54-904.76,5.54s42.21-142.67,48.01-162.49,43.33-46.17,70.16-46.17,451.17-1.84,607.49-3.69c30.79-2.23,58.24-28.09,68.32-62.78,402.65-1481.31,843.2-3114.616,865.98-3185.238s27.95-75.275,99.71-77.553C3961.7,732.437,4488.36,727.682,4638.18,726Z"/>
  <path class="cls-1" d="M1432.42,3959.89c89.7,94.52,78.94,25.86,43.8-19.92s-213.05-341.17-207.06-557.69,255.82-285.74,296.65-462.08-48.43-127.03-23.89-217.1,359.84-468.64,350.4-1266.75c-22.26-220.6-67.97-330.27-211.04-557.692C1257.39,674.645,1005.53,663.078,648,1053.93c196.357,474.49,504.97,551.82,953.65,484,25.82,41.98,156.98,188.65,155.29,296.77-6.89,173.13-34.72,402.37-155.29,557.69s-275.76,385.65-356.38,752.87C1149.59,3572.78,1287.47,3714.62,1432.42,3959.89Z"/>
  <path class="cls-2" d="M1810.69,1617.6c-6.89-82.73-1.6-424.34-222.98-593.54-46.18-35.3-147.33-53.781-147.33-53.781s27.12,175.2-94.42,171.191c-146.02-4.83-101.53-191.618-101.53-191.618s-69.55-2.747-150.47,12.46c-102.166,19.2-214.754,81.088-215.015,79.668-0.772-4.2,111,329.2,404.155,360.51,163.28,17.43,380.27-87.64,380.27-87.64S1786.57,1502.12,1810.69,1617.6Z"/>
  <path class="cls-1" d="M2570.16,3034.14s-567.27,18.3-631.49,22.16c-32.04,1.93-75.2,80.77-24,121.87,38.25,30.71,493,446.86,493,446.86Z"/>
  <path id="Color_Fill_2" data-name="Color Fill 2" class="cls-3" d="M3973.46,988.2c80.41-.829,143.83,75.866,142.18,142.186s-59.02,150.02-147.72,145.87-130.48-81.51-132.94-94.17c-10.9.7-317.59-1.85-317.59-1.85l-236.35,840.17,18.46,31.39-38.77,129.25s-85.53-136.79-88.63-142.18a22.924,22.924,0,0,1-1.85-20.31c1.78-4.82,222.84-800.54,260.35-902.95,9.31-25.41,27.25-36.93,48.01-36.93-50.27,0,342.83-.35,360.06,0C3840.07,1054.42,3893.05,989.034,3973.46,988.2Zm-3.69,103.406c-29.4.69-40.28,22.3-40.63,40.62s5.7,41.32,40.63,40.63,41.66-29.8,40.62-44.32S3999.16,1090.92,3969.77,1091.61ZM3510,2389.71l284.35,459.78s-0.15,18.18-.22,28.2c-1.58,226.78-1.75,456.17-3.47,682.71-0.05,7.17-.56,12.83-3.69,20.31-47.39,95.39-132.02,267.79-144.03,293.6,0,7.2,48.19,61.81,7.39,144.02s-150.44,91.96-208.65,53.55-80.36-122.28-46.16-186.49,107.83-87.62,160.64-72.02c18-32.4,88.02-176.04,129.25-260.36V3231.72s-111.74-115.24-124.14-127.15c-15.38,13.89-114.75,36.65-171.29-29.8s-44.27-148.12,1.85-195.74,134.31-68.88,201.26-7.38,45.36,131.66,36.93,156.95c17.85,14.88,57.24,55.4,57.24,55.4l1.85-206.81-216.04-356.38Zm-42.47,557.65c-11.5,15.46-20.08,43.36-1.85,57.24s37.28,22.86,59.09,1.84,11.63-47.85-1.85-60.93S3479.03,2931.89,3467.53,2947.36Zm73.86,967.57c-23.85-12.3-50.19,3.61-53.55,12.92s-18.75,39.72,12.93,59.09,53.12-7.67,59.08-16.62S3565.24,3927.23,3541.39,3914.93Z"/>
</svg>
